<?xml version="1.0" encoding="utf-8"?>
<!-- Generator: Adobe Illustrator 19.0.0, SVG Export Plug-In . SVG Version: 6.00 Build 0)  -->
<svg version="1.1" id="图层_1" xmlns="http://www.w3.org/2000/svg" xmlns:xlink="http://www.w3.org/1999/xlink" x="0px" y="0px"
	 viewBox="0 0 200 80" style="enable-background:new 0 0 200 80;" xml:space="preserve">
<style type="text/css">
	.st0{fill:#0000FF;}
	.st1{fill:#FFFFFF;}
	.st2{fill:#B5B5B5;}
	.st3{font-family:'SimHei';}
	.st4{font-size:41.9686px;}
</style>
<path id="XMLID_2_" class="st0" d="M35.5,0"/>
<g id="XMLID_6_">
	<path id="XMLID_7_" class="st1" d="M40.3,20.6l-9.5,9.6c0,0,1.8,1.7,1.7,2.8v20.2l7.8,7.2V21.1V20.6z"/>
	<path id="XMLID_9_" class="st1" d="M49.2,8.9c0,0,8,14.3-6.6,20.5c0,0,9.9,2.2,17.1-4.8C59.7,24.7,71,14.1,49.2,8.9z"/>
	<path id="XMLID_10_" class="st1" d="M41.7,39.5c0,0,4.6,17.2,10.5,21.3c0,0,7,7.6,18,3.8C70.3,64.6,46.4,47.8,41.7,39.5z"/>
</g>
<path id="XMLID_13_" class="st1" d="M14.7,42.2c0-16.9,11.9-31,27.8-34.4c-28.8,1-41,16-41,31.9c0,20,20.7,36.4,46.7,37.5L66.1,78
	C47.5,77.2,14.7,61,14.7,42.2z"/>
<path id="XMLID_3_" class="st2" d="M22.3,42.2c0-16.9,9.2-31.3,25.1-34.7C18.5,8.5,9,23.8,9,39.7c0,20,20.7,36.4,46.7,37.5L73.7,78
	C55,77.2,22.3,61,22.3,42.2z"/>
<circle id="XMLID_17_" style="fill:none;" cx="55.7" cy="-69.7" r="44.3"/>
<text id="XMLID_8_" transform="matrix(1 0 0 1 71.3805 56.8028)" class="st1 st3 st4">科创室</text>
</svg>
